<svg width="96" height="96" viewBox="0 0 96 96" fill="none" xmlns="http://www.w3.org/2000/svg">
  <circle cx="48" cy="48" r="48" fill="#ED2024"/>
  <path d="M70.9183 51.3346C70.2438 51.3346 69.6861 51.1141 69.2451 50.6732C68.8041 50.2322 68.5837 49.6744 68.5837 49C68.5837 48.3256 68.8041 47.7678 69.2451 47.3268C69.6861 46.8859 70.2438 46.6654 70.9183 46.6654H77.9222C78.5966 46.6654 79.1543 46.8859 79.5953 47.3268C80.0363 47.7678 80.2568 48.3256 80.2568 49C80.2568 49.6744 80.0363 50.2322 79.5953 50.6732C79.1543 51.1141 78.5966 51.3346 77.9222 51.3346H70.9183ZM70.607 72.5019L64.9261 68.2996C64.4073 67.8846 64.096 67.3658 63.9922 66.7432C63.8885 66.1206 64.0441 65.5499 64.4591 65.0311C64.8742 64.5123 65.393 64.201 66.0156 64.0973C66.6381 63.9935 67.2088 64.1492 67.7276 64.5642L73.4086 68.7665C73.9274 69.1816 74.2387 69.7004 74.3424 70.323C74.4462 70.9455 74.2905 71.5162 73.8755 72.035C73.4604 72.5538 72.9416 72.8651 72.3191 72.9689C71.6965 73.0726 71.1258 72.917 70.607 72.5019ZM67.9611 33.358C67.4423 33.773 66.8716 33.9287 66.249 33.8249C65.6265 33.7211 65.1077 33.4099 64.6926 32.891C64.2776 32.3722 64.1219 31.8016 64.2257 31.179C64.3294 30.5564 64.6407 30.0376 65.1595 29.6226L70.607 25.4981C71.1258 25.083 71.6965 24.9274 72.3191 25.0311C72.9416 25.1349 73.4604 25.4462 73.8755 25.965C74.2905 26.4838 74.4462 27.0545 74.3424 27.677C74.2387 28.2996 73.9274 28.8184 73.4086 29.2335L67.9611 33.358ZM28.1167 70.7899V58.3385H22.6693C21.3722 58.3385 20.2698 57.8846 19.3619 56.9767C18.454 56.0687 18 54.9663 18 53.6693V44.3307C18 43.0337 18.454 41.9313 19.3619 41.0233C20.2698 40.1154 21.3722 39.6615 22.6693 39.6615H36.677L48.7393 32.4241C49.5175 31.9572 50.2957 31.9572 51.0739 32.4241C51.8521 32.8911 52.2412 33.5655 52.2412 34.4475V63.5525C52.2412 64.4345 51.8521 65.109 51.0739 65.5759C50.2957 66.0428 49.5175 66.0428 48.7393 65.5759L36.677 58.3385H32.786V70.7899H28.1167ZM55.3541 59.428V38.572C56.7549 39.8171 57.8833 41.3346 58.7393 43.1245C59.5953 44.9144 60.0233 46.8729 60.0233 49C60.0233 51.1271 59.5953 53.0856 58.7393 54.8755C57.8833 56.6654 56.7549 58.1829 55.3541 59.428ZM47.572 59.428V38.572L37.9222 44.3307H22.6693V53.6693H37.9222L47.572 59.428Z" fill="white"/>
  </svg>
  