<svg width="96" height="96" viewBox="0 0 96 96" fill="none" xmlns="http://www.w3.org/2000/svg">
  <circle cx="48" cy="48" r="48" fill="#ED2024" />
  <path
    d="M20.6025 63.367C20.1785 62.9451 19.9783 62.4527 20.0019 61.8901C20.0254 61.3275 20.2256 60.8352 20.6025 60.4132L38.1978 42.9011C38.4333 42.6667 38.6689 42.5026 38.9044 42.4088C39.14 42.315 39.3991 42.2681 39.6817 42.2681C39.9644 42.2681 40.2235 42.315 40.459 42.4088C40.6946 42.5026 40.9301 42.6667 41.1657 42.9011L51.4826 53.1692L68.5126 36.2198H61.6582C61.0458 36.2198 60.5393 36.0205 60.1389 35.622C59.7385 35.2234 59.5383 34.7194 59.5383 34.1099C59.5383 33.5004 59.7385 32.9963 60.1389 32.5978C60.5393 32.1993 61.0458 32 61.6582 32H73.459C74.0715 32 74.5779 32.1993 74.9783 32.5978C75.3787 32.9963 75.5789 33.5004 75.5789 34.1099V45.8549C75.5789 46.4176 75.3787 46.9099 74.9783 47.3319C74.5779 47.7538 74.095 47.9648 73.5297 47.9648C72.9644 47.9648 72.4697 47.7538 72.0458 47.3319C71.6218 46.9099 71.4098 46.4176 71.4098 45.8549V39.3143L52.8959 57.7407C52.6603 57.9751 52.4248 58.1392 52.1892 58.233C51.9537 58.3267 51.6946 58.3736 51.4119 58.3736C51.1293 58.3736 50.8702 58.3267 50.6346 58.233C50.3991 58.1392 50.1635 57.9751 49.928 57.7407L39.6111 47.4725L23.5704 63.4374C23.1935 63.8125 22.7106 64 22.1218 64C21.5329 64 21.0265 63.789 20.6025 63.367Z"
    fill="white" />
</svg>