<svg width="96" height="96" viewBox="0 0 96 96" fill="none" xmlns="http://www.w3.org/2000/svg">
  <circle cx="48" cy="48" r="48" fill="#ED2024" />
  <path
    d="M28 72C26.8889 72 25.9444 71.6111 25.1667 70.8333C24.3889 70.0556 24 69.1111 24 68V48C24 44.6667 24.6333 41.5444 25.9 38.6333C27.1667 35.7222 28.8778 33.1889 31.0333 31.0333C33.1889 28.8778 35.7222 27.1667 38.6333 25.9C41.5444 24.6333 44.6667 24 48 24C51.3333 24 54.4556 24.6333 57.3667 25.9C60.2778 27.1667 62.8111 28.8778 64.9667 31.0333C67.1222 33.1889 68.8333 35.7222 70.1 38.6333C71.3667 41.5444 72 44.6667 72 48V68C72 69.1111 71.6111 70.0556 70.8333 70.8333C70.0556 71.6111 69.1111 72 68 72H62.1333C61.0222 72 60.0778 71.6111 59.3 70.8333C58.5222 70.0556 58.1333 69.1111 58.1333 68V56.2667C58.1333 55.1556 58.5222 54.2111 59.3 53.4333C60.0778 52.6556 61.0222 52.2667 62.1333 52.2667H68V48C68 42.4444 66.0556 37.7222 62.1667 33.8333C58.2778 29.9444 53.5556 28 48 28C42.4444 28 37.7222 29.9444 33.8333 33.8333C29.9444 37.7222 28 42.4444 28 48V52.2667H33.8667C34.9778 52.2667 35.9222 52.6556 36.7 53.4333C37.4778 54.2111 37.8667 55.1556 37.8667 56.2667V68C37.8667 69.1111 37.4778 70.0556 36.7 70.8333C35.9222 71.6111 34.9778 72 33.8667 72H28ZM28 68H33.8667V56.2667H28V68ZM62.1333 68H68V56.2667H62.1333V68ZM28 68H33.8667H28ZM62.1333 68H68H62.1333Z"
    fill="white" />
</svg>