<svg width="96" height="96" viewBox="0 0 96 96" fill="none" xmlns="http://www.w3.org/2000/svg">
  <circle cx="48" cy="48" r="48" fill="#ED2024" />
  <path
    d="M47.6536 76C46.9471 76 46.3629 75.7796 45.901 75.3389C45.4391 74.8982 45.2082 74.3407 45.2082 73.6667V69.4667C42.5997 69.0519 40.3717 68.1704 38.524 66.8222C36.6764 65.4741 35.2363 63.763 34.2038 61.6889C33.9321 61.1185 33.9321 60.5222 34.2038 59.9C34.4755 59.2778 34.9374 58.837 35.5895 58.5778C36.1873 58.3185 36.7986 58.3185 37.4236 58.5778C38.0485 58.837 38.524 59.2519 38.8501 59.8222C39.8282 61.5852 41.1053 62.9074 42.6812 63.7889C44.2572 64.6704 46.0776 65.1111 48.1427 65.1111C50.7511 65.1111 52.8976 64.4889 54.5822 63.2444C56.2669 62 57.1092 60.2889 57.1092 58.1111C57.1092 55.8296 56.362 54.0667 54.8675 52.8222C53.3731 51.5778 50.5609 50.3074 46.4309 49.0111C42.5182 47.8185 39.5973 46.237 37.6681 44.2667C35.739 42.2963 34.7744 39.8333 34.7744 36.8778C34.7744 34.0259 35.739 31.6407 37.6681 29.7222C39.5973 27.8037 42.1106 26.7148 45.2082 26.4556V22.3333C45.2082 21.6593 45.4391 21.1019 45.901 20.6611C46.3629 20.2204 46.9471 20 47.6536 20C48.36 20 48.9442 20.2204 49.4061 20.6611C49.868 21.1019 50.099 21.6593 50.099 22.3333V26.4556C52.0553 26.7148 53.8079 27.2852 55.3566 28.1667C56.9054 29.0481 58.196 30.1889 59.2285 31.5889C59.6089 32.1074 59.6904 32.6648 59.4731 33.2611C59.2557 33.8574 58.821 34.2852 58.1689 34.5444C57.5711 34.8037 56.9461 34.8296 56.294 34.6222C55.6419 34.4148 55.0985 34.0259 54.6638 33.4556C53.903 32.5222 52.9656 31.8352 51.8515 31.3944C50.7375 30.9537 49.3925 30.7333 47.8166 30.7333C45.3168 30.7333 43.3333 31.2778 41.8661 32.3667C40.3988 33.4556 39.6652 34.9333 39.6652 36.8C39.6652 38.7704 40.4803 40.3648 42.1106 41.5833C43.7409 42.8019 46.7569 44.0593 51.1587 45.3556C54.854 46.4444 57.5847 48.013 59.3508 50.0611C61.1169 52.1093 62 54.6889 62 57.8C62 61.0667 60.9947 63.6982 58.984 65.6944C56.9733 67.6907 54.0116 68.9741 50.099 69.5444V73.6667C50.099 74.3407 49.868 74.8982 49.4061 75.3389C48.9442 75.7796 48.36 76 47.6536 76Z"
    fill="white" />
</svg>