<svg width="157" height="45" viewBox="0 0 157 45" fill="none" xmlns="http://www.w3.org/2000/svg">
  <path d="M133.787 24.7459L157 10.2725V14.1975L133.787 28.7322L110.544 14.1975V10.2725L133.787 24.7459Z"
    fill="white" />
  <path
    d="M133.787 6.59277C128.544 6.59277 123.944 9.22987 121.307 13.3082C121.522 13.0935 121.644 12.9709 121.859 12.8176C128.39 7.39004 137.804 8.61659 142.925 15.4547L146.329 13.2775C143.63 9.32187 139 6.59277 133.787 6.59277Z"
    fill="white" />
  <path
    d="M133.787 13.3081C130.936 13.3081 128.421 14.7493 126.919 16.8345C128.145 15.9452 129.556 15.4853 131.058 15.4853C133.573 15.4853 135.811 16.7732 137.314 18.9503L140.564 16.9265C139.154 14.688 136.639 13.3081 133.787 13.3081Z"
    fill="white" />
  <path
    d="M118.087 7.42071C127.655 -0.122653 141.177 1.93184 148.383 11.959L148.445 12.0203L151.971 9.84316C148.107 3.92499 141.392 0 133.787 0C126.244 0 119.529 3.86366 115.604 9.84316C116.309 9.04589 117.198 8.09532 118.087 7.42071Z"
    fill="white" />
  <path
    d="M21.1277 36.7356V22.8755H25.666V36.5823C25.666 39.9247 28.4564 40.722 30.0203 40.722C33.424 40.722 34.5585 38.6981 34.5585 37.5329V22.8755H39.0968V44.4017H36.4597L34.6812 41.9485C33.4546 43.4511 31.4308 44.8003 28.4257 44.8003C24.1021 44.831 21.1277 41.9792 21.1277 36.7356Z"
    fill="white" />
  <path
    d="M72.7352 15.3012V44.432H75.311L76.9975 41.9789C78.2241 43.4814 80.2479 44.892 83.253 44.892C87.27 44.892 90.6431 42.4389 90.6431 37.0113V30.3572C90.6431 24.9297 87.2393 22.4766 83.0384 22.4766C80.1253 22.4766 78.1628 23.7645 77.1202 25.0524V15.2705L72.7352 15.3012ZM81.9651 40.7523C79.1747 40.7523 77.1509 39.4031 77.2122 36.4594V30.5412C77.2122 28.2414 79.052 26.4629 82.0264 26.4629C84.1423 26.4629 86.2274 28.0268 86.2274 30.5412V36.582C86.2274 39.2498 84.0809 40.7523 81.9651 40.7523Z"
    fill="white" />
  <path
    d="M55.7473 15.3013V25.0831C54.7354 23.7952 52.7729 22.5073 49.8292 22.5073C45.6282 22.5073 42.2245 24.9605 42.2245 30.388V37.0421C42.2245 42.4696 45.6282 44.9228 49.6145 44.9228C52.5889 44.9228 54.6434 43.4816 55.87 42.0097L57.5565 44.4628H60.1323V15.3319H55.7473V15.3013ZM46.6401 36.6741V30.6333C46.6401 28.1188 48.7559 26.555 50.8411 26.555C53.8155 26.555 55.6554 28.2415 55.6554 30.6333V36.5515C55.7167 39.4646 53.6929 40.8445 50.9024 40.8445C48.8173 40.7525 46.6401 39.2499 46.6401 36.6741Z"
    fill="white" />
  <path d="M93.7092 15.3013H98.2475V44.4321H93.7092V15.3013Z" fill="white" />
  <path d="M68.7794 22.9058H64.2411V44.4319H68.7794V22.9058Z" fill="white" />
  <path
    d="M66.5409 20.2995C67.9634 20.2995 69.1166 19.1463 69.1166 17.7237C69.1166 16.3012 67.9634 15.1479 66.5409 15.1479C65.1183 15.1479 63.9651 16.3012 63.9651 17.7237C63.9651 19.1463 65.1183 20.2995 66.5409 20.2995Z"
    fill="white" />
  <path
    d="M110.759 40.7526C107.631 40.7526 106.128 39.1274 106.128 36.889V35.1105H119.559V30.2962C119.559 25.3286 116.094 22.4155 110.728 22.4155C105.147 22.4155 101.559 25.5433 101.559 30.4189V37.0729C101.559 42.0405 105.147 44.9536 110.728 44.9536C114.868 44.9536 117.934 43.2671 119.161 40.4153L115.91 38.3915C114.776 39.9554 113.12 40.7526 110.759 40.7526ZM106.128 30.3575C106.128 28.1191 107.692 26.5552 110.605 26.5552C113.518 26.5552 115.082 28.1191 115.082 30.3575V31.7067H106.19L106.128 30.3575Z"
    fill="white" />
  <path
    d="M9.44453 22.4155C5.0289 22.4155 2.17715 24.1941 1.1039 26.8312L4.63027 29.0083C6.13281 26.6165 7.54336 26.4938 9.44453 26.4938C12.235 26.4938 13.4615 27.7817 13.4615 29.8976V31.5841H9.62851C6.83808 31.5841 0 32.5347 0 38.4528C0 42.6538 3.18906 44.7696 7.05273 44.7696C10.1191 44.7696 12.3576 43.3284 13.6455 41.8566L15.424 44.3097H18.0611V29.5603C17.9998 25.4819 15.148 22.4155 9.44453 22.4155ZM13.4309 37.5636C13.3695 37.9009 13.3695 38.2995 12.9402 38.8515C12.2656 39.8021 10.4871 40.7526 8.46328 40.7526C6.28613 40.7526 4.72226 39.8634 4.72226 38.1155C4.72226 35.5398 8.86191 34.9878 11.499 34.8651H13.4615L13.4309 37.5636Z"
    fill="white" />
</svg>