<svg width="177" height="52" viewBox="0 0 177 52" fill="none" xmlns="http://www.w3.org/2000/svg">
  <path
    d="M30.6173 12.5076L34.3486 5.98279C35.4656 4.0772 34.7954 1.65516 32.8961 0.53412C30.997 -0.564857 28.5841 0.0859461 27.4669 1.99166L23.7359 8.51651C15.7597 5.98279 6.80024 9.23412 2.44352 16.8352C-0.326884 21.6559 -0.662054 27.2168 1.03603 32.0606L7.93975 20.0194C9.52606 17.2391 12.0955 15.2661 15.1563 14.4362C18.2398 13.6064 21.4568 14.01 24.2049 15.625C29.9024 18.9208 31.846 26.2306 28.5617 31.9709C25.2773 37.7111 17.9939 39.6391 12.2741 36.3433L16.2511 29.437C18.15 30.5581 20.5632 29.8853 21.6803 27.9795C22.7974 26.0734 22.1271 23.652 20.2278 22.531C18.3288 21.4323 15.9159 22.0824 14.7986 23.9881L2.15306 46.0074C1.05814 47.9131 1.70625 50.335 3.60538 51.4561C5.50463 52.5769 7.91752 51.9047 9.03455 49.9985L12.7658 43.4736C20.742 46.0073 29.7013 42.7564 34.0581 35.1549C38.4595 27.5763 36.8061 18.1586 30.6173 12.5076ZM47.4412 17.2165H53.5854C57.1378 17.2165 60.0872 18.988 60.0872 23.1138C60.0872 27.2169 57.1157 29.0111 53.5854 29.0111H51.0385V34.7738H47.4413L47.4412 17.2165ZM53.4962 25.827C55.2609 25.827 56.4005 25.0199 56.4005 23.0914C56.4005 21.1179 55.2164 20.3782 53.4962 20.3782H51.0385V25.8265L53.4962 25.827ZM65.3823 17.2165H76.9558V20.4007H68.9794V24.4142H75.9949V27.5085H68.9794V31.6118H77.313V34.7959H65.3824L65.3823 17.2165ZM83.3677 17.2165H86.9649V31.5671H94.874V34.7512H83.3677V17.2165ZM98.9179 25.9836C98.9179 20.8268 102.917 16.9699 107.967 16.9699C113.016 16.9699 117.015 20.782 117.015 25.9836C117.015 31.1862 113.016 34.9979 107.967 34.9979C102.917 34.9979 98.9179 31.1862 98.9179 25.9836ZM113.329 25.9836C113.329 22.7325 111.162 20.1993 107.967 20.1993C104.772 20.1993 102.604 22.6877 102.604 25.9836C102.604 29.2353 104.75 31.7691 107.967 31.7691C111.139 31.7914 113.329 29.2578 113.329 25.9836ZM125.863 20.4007H120.881V17.2165H134.465V20.4007H129.482V34.7512H125.886V20.4007H125.863ZM138.308 25.9836C138.308 20.8268 142.307 16.9699 147.356 16.9699C152.405 16.9699 156.405 20.782 156.405 25.9836C156.405 31.1862 152.405 34.9979 147.356 34.9979C142.329 34.9979 138.308 31.1862 138.308 25.9836ZM152.718 25.9836C152.718 22.7325 150.551 20.1993 147.356 20.1993C144.161 20.1993 141.994 22.6877 141.994 25.9836C141.994 29.2353 144.161 31.7691 147.356 31.7691C150.574 31.7914 152.718 29.2578 152.718 25.9836ZM167.42 26.6119C166.549 25.7822 165.342 24.2125 165.342 24.2125C165.342 24.2125 165.588 26.1633 165.588 27.3966V34.7514H162.237V17.0595H162.572L171.374 25.3786C172.246 26.1857 173.452 27.7774 173.452 27.7774C173.452 27.7774 173.207 25.8045 173.207 24.5938V17.2391H176.558V34.9306H176.223L167.42 26.6119Z"
    fill="white" />
</svg>