<?xml version="1.0" encoding="utf-8"?>
<!-- Generator: Adobe Illustrator 26.5.0, SVG Export Plug-In . SVG Version: 6.00 Build 0)  -->
<svg version="1.1" id="Layer_1" xmlns="http://www.w3.org/2000/svg" xmlns:xlink="http://www.w3.org/1999/xlink" x="0px" y="0px"
	 viewBox="0 0 1015 141" style="enable-background:new 0 0 1015 141;" xml:space="preserve">
<style type="text/css">
	.st0{fill:#ED2924;}
	.st1{fill:#FFFFFF;}
</style>
<path class="st0" d="M292.9,70.1c0-38.3,30.6-68.1,70.5-68.1s70.5,29.8,70.5,68.1s-30.6,68.3-70.5,68.3S292.9,108.4,292.9,70.1z"/>
<path class="st1" d="M71.3,130.9L26,81.4v49.4H0V12.7h56.3c27.4,0,44.6,13.9,44.6,37.6s-14,35.2-39.5,36l44.5,44.5L71.3,130.9
	L71.3,130.9z M26,64.9h32.4c9.8,0,16-4.8,16-14.6s-6.2-14.4-16-14.4H26V64.9z"/>
<path class="st1" d="M127.4,12.7h93.2v23.5h-67.4v20.7l47.3,0.1v22.8h-47.3v27.4h67.6v23.6h-93.4V12.7z"/>
<path class="st1" d="M246,12.7l40.2-0.2c42.4-0.2,69,25,69,59.5s-26.5,58.9-69,58.9H246V12.7z M286.1,107.3
	c29.8-0.1,43.1-13.5,43.1-35.2S316,36.2,286.1,36l-14.3-0.1v71.4L286.1,107.3z"/>
<path class="st1" d="M368.5,71.9c0-34.5,27.5-61.5,63.4-61.5c20.3,0,38,8.7,49.5,22.5l-19.9,15.6c-6.9-8.6-17.6-13.8-29.6-13.8
	c-20.8,0-37.6,15.4-37.6,37.2s16.8,37.2,37.6,37.2c12.2,0,23.1-5.3,30-14.2l20.2,15.2c-11.5,14.2-29.4,23.1-50.1,23.1
	C396,133.2,368.5,106.4,368.5,71.9L368.5,71.9z"/>
<path class="st1" d="M503.6,12.7h25.9v118.1h-25.9V12.7z"/>
<path class="st1" d="M633,130.9l-45.3-49.4v49.4h-26V12.7H618c27.3,0,44.6,13.9,44.6,37.6s-14,35.2-39.5,36l44.5,44.5L633,130.9
	L633,130.9z M587.7,64.9h32.4c9.8,0,16.1-4.8,16.1-14.6s-6.2-14.4-16.1-14.4h-32.4V64.9z"/>
<path class="st1" d="M680.4,71.9c0-34.5,27.5-61.5,63.4-61.5c20.4,0,38,8.7,49.5,22.5l-19.9,15.6c-6.9-8.6-17.6-13.8-29.6-13.8
	c-20.8,0-37.6,15.4-37.6,37.2S723,109,743.8,109c12.2,0,23.1-5.3,30-14.2l20.2,15.2c-11.5,14.2-29.4,23.1-50.1,23.1
	C707.9,133.2,680.4,106.4,680.4,71.9L680.4,71.9z"/>
<path class="st1" d="M815.5,12.7h25.9l-0.1,94.5h59.8v23.6h-85.6V12.7z"/>
<path class="st1" d="M920.9,12.7h93.2v23.5h-67.4v20.7l47.3,0.1v22.8h-47.3v27.4h67.6v23.6h-93.4V12.7z"/>
</svg>
