<?xml version="1.0" standalone="no"?>
<!DOCTYPE svg PUBLIC "-//W3C//DTD SVG 20010904//EN"
 "http://www.w3.org/TR/2001/REC-SVG-20010904/DTD/svg10.dtd">
<svg version="1.0" xmlns="http://www.w3.org/2000/svg"
 width="251.000000pt" height="251.000000pt" viewBox="0 0 251.000000 251.000000"
 preserveAspectRatio="xMidYMid meet">
<metadata>
Created by potrace 1.14, written by Peter Selinger 2001-2017
</metadata>
<g transform="translate(0.000000,251.000000) scale(0.100000,-0.100000)"
fill="#000000" stroke="none">
<path d="M1008 2490 c-380 -80 -691 -313 -867 -650 -99 -189 -141 -364 -141
-585 0 -152 18 -272 60 -397 147 -437 513 -756 969 -842 110 -21 342 -21 452
0 394 75 720 319 899 674 91 181 130 350 130 565 0 218 -42 393 -137 578 -179
345 -506 588 -892 661 -117 22 -359 20 -473 -4z m272 -625 c70 -24 150 -102
168 -161 15 -52 16 -161 0 -205 -27 -80 -110 -143 -204 -155 -79 -11 -79 -14
-15 -78 l58 -58 49 37 c61 47 117 71 199 86 118 22 274 -23 349 -100 l37 -38
-48 -38 c-26 -21 -53 -43 -60 -48 -8 -6 -24 0 -46 17 -51 39 -101 56 -167 56
-143 0 -244 -99 -244 -240 0 -211 237 -317 411 -184 l34 26 55 -38 c31 -21 58
-42 61 -47 10 -16 -61 -78 -124 -109 -135 -66 -298 -58 -420 21 -72 47 -107
87 -147 171 -28 59 -31 74 -31 167 l0 102 -150 162 -150 163 -3 -187 -2 -187
-95 0 -95 0 0 446 0 446 263 -4 c224 -4 270 -7 317 -23z"/>
<path d="M898 1714 c-5 -4 -8 -56 -8 -116 l0 -108 140 0 c159 0 199 11 224 59
29 55 15 116 -33 148 -21 15 -53 19 -171 21 -80 2 -148 0 -152 -4z"/>
</g>
</svg>
